<svg xmlns="http://www.w3.org/2000/svg" viewBox="0 0 32 32"><path fill="#5865F2" d="M26.75 7.53C24.73 6.6 22.57 6 20.31 6l-.29.58C18.1 6.2 16.05 6.2 14 6.6l-.29-.6C11.45 6 9.3 6.6 7.27 7.53C4.05 12.3 3.1 16.95 3.45 21.53C6.15 23.57 8.76 24.67 11.31 25.4c.58-.8 1.1-1.65 1.56-2.54c-.86-.32-1.68-.71-2.46-1.17c.21-.16.41-.33.6-.5c4.63 2.17 9.64 2.17 14.23 0c.19.18.39.35.6.5c-.78.45-1.6.85-2.46 1.17c.46.89.98 1.75 1.56 2.54c2.57-.73 5.18-1.83 7.9-3.86c.42-5.32-.55-9.97-3.29-13.51zM13.27 18.85c-1.24 0-2.25-1.14-2.25-2.55c0-1.4 1-2.55 2.25-2.55c1.23 0 2.25 1.15 2.25 2.55c0 1.41-1.02 2.55-2.25 2.55zm8.95 0c-1.24 0-2.25-1.14-2.25-2.55c0-1.4 1-2.55 2.25-2.55c1.23 0 2.25 1.15 2.25 2.55c0 1.41-1.02 2.55-2.25 2.55z"/></svg>