<svg xmlns="http://www.w3.org/2000/svg" viewBox="0 0 32 32"><path fill="#181717" d="M16 .4A15.6 15.6 0 0 0 .4 16A15.6 15.6 0 0 0 16 31.6A15.6 15.6 0 0 0 31.6 16A15.6 15.6 0 0 0 16 .4zm4.27 22.87c-.39.07-.53-.17-.53-.38c0-.27.01-1.15.01-2.25c0-.77-.26-1.27-.56-1.53c1.85-.2 3.8-.91 3.8-4.12c0-.91-.32-1.65-.85-2.23c.09-.21.37-1.02-.08-2.12c0 0-.69-.22-2.26.85c-.66-.19-1.37-.28-2.08-.28c-.71 0-1.42.09-2.08.28c-1.58-1.07-2.27-.85-2.27-.85c-.45 1.1-.17 1.91-.08 2.12c-.53.58-.85 1.32-.85 2.23c0 3.2 1.95 3.92 3.8 4.12c-.24.2-.45.54-.52 1.04c-.47.21-1.67.58-2.41-.69c0 0-.44-.81-1.28-.87c0 0-.82-.01-.06.52c0 0 .55.26.93 1.26c0 0 .49 1.6 2.83 1.1c0 .7.01 1.36.01 1.55c0 .21-.14.45-.53.38c3.18-1.06 5.48-4.05 5.48-7.58c0-4.42-3.59-8.01-8.01-8.01c-4.42 0-8.01 3.59-8.01 8.01c0 4.42 3.59 8.01 8.01 8.01c.98 0 1.91-.18 2.77-.51c.01.01-.01.01 0 0z"/></svg>