<svg xmlns="http://www.w3.org/2000/svg" viewBox="0 0 32 32"><path fill="#111" d="M27.5 9.5c-.7.3-1.5.5-2.3.6c.8-.5 1.4-1.3 1.7-2.2c-.8.5-1.7.9-2.6 1.1c-.8-.8-1.9-1.3-3.1-1.3c-2.4 0-4.4 2-4.4 4.4c0 .3 0 .7.1 1c-3.6-.2-6.9-1.9-9-4.6c-.4.7-.6 1.4-.6 2.2c0 1.5.8 2.9 2 3.7c-.7 0-1.4-.2-2-.6c0 2.1 1.5 3.8 3.4 4.2c-.4.1-.8.2-1.2.2c-.3 0-.6 0-.9-.1c.6 1.8 2.3 3.1 4.2 3.2c-1.6 1.3-3.6 2.1-5.7 2.1c-.4 0-.8 0-1.1-.1c2 1.3 4.5 2.1 7.1 2.1c8.5 0 13.2-7.1 13.2-13.2c0-.2 0-.4 0-.6c.9-.6 1.5-1.3 2.1-2.1z"/></svg>